<svg width="25" height="27" fill="none" xmlns="http://www.w3.org/2000/svg"><g opacity=".4" clip-path="url(#clip0_802_2715)" fill="#fff"><path d="M12.254 26.04C5.714 26.04.398 20.555.398 13.807.398 7.06 5.713 1.56 12.254 1.56c.903 0 1.807.11 2.68.316.276.064.46.364.398.648a.536.536 0 01-.628.411 10.608 10.608 0 00-2.45-.284c-5.959 0-10.799 4.993-10.799 11.14s4.84 11.141 10.799 11.141c5.958 0 10.798-4.994 10.798-11.14 0-1.138-.168-2.26-.49-3.335a.541.541 0 01.337-.68.518.518 0 01.658.348c.353 1.185.537 2.418.537 3.666.015 6.748-5.3 12.247-11.84 12.247z"/><path d="M20.586 8.135a.525.525 0 01-.52-.537V1.403c0-.3.23-.537.52-.537.291 0 .521.237.521.537v6.195c0 .284-.23.537-.52.537z"/><path d="M23.588 5.038h-6.004a.525.525 0 01-.52-.537c0-.3.23-.538.52-.538h6.004c.291 0 .521.237.521.538 0 .284-.23.537-.52.537zM7.658 19.734V9.81L5.82 11.817l-.873-.9 2.88-3.066h1.256v11.883H7.658zm3.125-3.018c0-1.58 1.317-2.67 2.742-3.113-1.333-.395-2.558-1.28-2.558-2.845 0-2.133 2.022-3.081 3.936-3.081 1.9 0 3.952.948 3.952 3.082 0 1.564-1.24 2.465-2.573 2.844 1.44.442 2.742 1.533 2.742 3.113 0 2.007-1.869 3.224-4.136 3.224-2.252 0-4.105-1.186-4.105-3.224zm6.816-.158c0-1.549-1.976-2.212-2.68-2.291-.705.094-2.696.742-2.696 2.291 0 1.28 1.256 2.07 2.696 2.07 1.409 0 2.68-.79 2.68-2.07zm-.184-5.61c0-1.232-1.118-1.96-2.512-1.96-1.393 0-2.511.728-2.511 1.96 0 1.438 1.807 1.928 2.511 2.054.72-.126 2.512-.616 2.512-2.054z"/></g><defs><clipPath id="clip0_802_2715"><path fill="#fff" transform="translate(0 .487)" d="M0 0h24.476v25.916H0z"/></clipPath></defs></svg>