<svg width="52" height="54" fill="none" xmlns="http://www.w3.org/2000/svg"><g opacity=".4" clip-path="url(#clip0_785_494)" fill="#000"><path d="M26.028 53.243c-13.627 0-24.702-11.426-24.702-25.485 0-14.06 11.075-25.519 24.702-25.519 1.883 0 3.766.23 5.585.659.575.131.958.757.83 1.35-.127.592-.734.988-1.308.856a22.106 22.106 0 00-5.107-.593c-12.415 0-22.5 10.405-22.5 23.214 0 12.808 10.085 23.213 22.5 23.213s22.5-10.405 22.5-23.213c0-2.371-.35-4.709-1.021-6.948a1.128 1.128 0 01.702-1.416c.575-.197 1.181.132 1.372.725a26.795 26.795 0 011.117 7.639c.032 14.06-11.042 25.518-24.67 25.518z"/><path d="M43.39 15.937c-.607 0-1.085-.494-1.085-1.12V1.91c0-.626.478-1.12 1.085-1.12.606 0 1.085.494 1.085 1.12v12.907c0 .593-.479 1.12-1.085 1.12z"/><path d="M49.645 9.483h-12.51c-.607 0-1.086-.494-1.086-1.12 0-.625.479-1.119 1.085-1.119h12.511c.606 0 1.085.494 1.085 1.12 0 .592-.478 1.12-1.085 1.12zM16.454 40.105V19.427l-3.83 4.182-1.82-1.877 6-6.388h2.618v24.761h-2.968zm6.51-6.289c0-3.293 2.745-5.565 5.713-6.487-2.777-.823-5.33-2.667-5.33-5.926 0-4.445 4.213-6.421 8.202-6.421 3.957 0 8.234 1.976 8.234 6.42 0 3.26-2.585 5.137-5.362 5.927 3 .922 5.713 3.194 5.713 6.487 0 4.182-3.894 6.717-8.617 6.717-4.691 0-8.553-2.47-8.553-6.717zm14.202-.33c0-3.226-4.117-4.609-5.585-4.774-1.468.198-5.617 1.548-5.617 4.775 0 2.667 2.617 4.313 5.617 4.313 2.936 0 5.585-1.646 5.585-4.313zm-.383-11.688c0-2.568-2.33-4.083-5.234-4.083s-5.234 1.515-5.234 4.083c0 2.996 3.766 4.017 5.234 4.28 1.5-.263 5.234-1.284 5.234-4.28z"/></g><defs><clipPath id="clip0_785_494"><path fill="#fff" transform="translate(.496)" d="M0 0h51v54H0z"/></clipPath></defs></svg>