<svg width="111" height="74" fill="none" xmlns="http://www.w3.org/2000/svg"><g filter="url(#filter0_d_802_1755)"><path d="M103.821 65.637a.5.5 0 00.646-.288l1.616-4.2a.5.5 0 00-.934-.359l-1.436 3.734-3.733-1.436a.5.5 0 00-.36.933l4.201 1.616zM4.648 1.68a64.593 64.593 0 015.178-.18l.004-1a65.59 65.59 0 00-5.26.183l.078.997zm15.573.51c3.243.405 6.679 1.002 10.248 1.825l.224-.974a102.757 102.757 0 00-10.348-1.843l-.124.993zm20.275 4.663a106.371 106.371 0 019.707 3.806l.41-.912a107.375 107.375 0 00-9.798-3.841l-.319.947zm18.98 8.545a102.593 102.593 0 018.755 5.65l.584-.81a103.56 103.56 0 00-8.84-5.706l-.498.866zM76.36 27.56a102.436 102.436 0 017.429 7.313l.737-.676a103.431 103.431 0 00-7.502-7.384l-.664.748zm14.084 15.333a110.164 110.164 0 015.846 8.624l.853-.522a111.197 111.197 0 00-5.9-8.702l-.8.6zm10.881 17.755a125.812 125.812 0 012.22 4.726l.913-.406a123.207 123.207 0 00-2.237-4.764l-.896.444z" fill="#818181"/></g><defs><filter id="filter0_d_802_1755" x=".571" y=".5" width="109.545" height="73.17" filterUnits="userSpaceOnUse" color-interpolation-filters="sRGB"><feFlood flood-opacity="0" result="BackgroundImageFix"/><feColorMatrix in="SourceAlpha" values="0 0 0 0 0 0 0 0 0 0 0 0 0 0 0 0 0 0 127 0" result="hardAlpha"/><feOffset dy="4"/><feGaussianBlur stdDeviation="2"/><feComposite in2="hardAlpha" operator="out"/><feColorMatrix values="0 0 0 0 0 0 0 0 0 0 0 0 0 0 0 0 0 0 0.25 0"/><feBlend in2="BackgroundImageFix" result="effect1_dropShadow_802_1755"/><feBlend in="SourceGraphic" in2="effect1_dropShadow_802_1755" result="shape"/></filter></defs></svg>