<svg width="16" height="16" fill="none" xmlns="http://www.w3.org/2000/svg"><g clip-path="url(#clip0_804_3400)" fill="#B2885C"><path d="M7.997 3.962C5.8 3.962 4 5.744 3.998 7.92c-.002 2.18 1.791 3.967 3.986 3.973 2.211.006 4.019-1.784 4.015-3.974-.004-2.178-1.803-3.957-4.002-3.956zm-.002 7.212c-1.792-.002-3.26-1.449-3.273-3.226C4.71 6.16 6.18 4.688 7.986 4.68c1.804-.008 3.287 1.453 3.288 3.241.003 1.791-1.473 3.254-3.279 3.253zm5.09-7.557a.734.734 0 01-.724.71.746.746 0 01-.73-.74.732.732 0 01.763-.701.713.713 0 01.691.731z"/><path d="M15.99 4.7C15.976 2.057 13.908.015 11.244.006 9.084-.002 6.927 0 4.768.005 2.084.013.017 2.056.006 4.72a759.8 759.8 0 000 6.418c.011 2.66 2.078 4.7 4.763 4.712 1.075.005 2.148 0 3.223 0 1.084 0 2.169.005 3.253 0 2.666-.014 4.732-2.053 4.746-4.698.01-2.15.011-4.3 0-6.45zm-.725 6.5c-.027 2.217-1.749 3.909-3.987 3.931a365.8 365.8 0 01-6.542 0C2.472 15.113.754 13.398.728 11.152.716 10.067.726 8.982.726 7.896H.75c0-1.193-.077-2.39.016-3.575C.93 2.243 2.602.745 4.703.724 6.895.7 9.087.703 11.278.722c2.236.021 3.96 1.714 3.987 3.93a264.76 264.76 0 010 6.549z"/><path d="M7.997 3.962C5.8 3.962 4 5.744 3.998 7.92c-.002 2.18 1.791 3.967 3.986 3.973 2.211.006 4.019-1.784 4.015-3.974-.004-2.178-1.803-3.957-4.002-3.956zm-.002 7.212c-1.792-.002-3.26-1.449-3.273-3.226C4.71 6.16 6.18 4.688 7.986 4.68c1.804-.008 3.287 1.453 3.288 3.241.003 1.791-1.473 3.254-3.279 3.253zm5.09-7.557a.734.734 0 01-.724.71.746.746 0 01-.73-.74.732.732 0 01.763-.701.713.713 0 01.691.731z"/><path d="M7.997 3.962C5.8 3.962 4 5.744 3.998 7.92c-.002 2.18 1.791 3.967 3.986 3.973 2.211.006 4.019-1.784 4.015-3.974-.004-2.178-1.803-3.957-4.002-3.956zm-.002 7.212c-1.792-.002-3.26-1.449-3.273-3.226C4.71 6.16 6.18 4.688 7.986 4.68c1.804-.008 3.287 1.453 3.288 3.241.003 1.791-1.473 3.254-3.279 3.253zm5.09-7.557a.734.734 0 01-.724.71.746.746 0 01-.73-.74.732.732 0 01.763-.701.713.713 0 01.691.731z"/></g><defs><clipPath id="clip0_804_3400"><path fill="#fff" d="M0 0h16v16H0z"/></clipPath></defs></svg>