<svg width="52" height="54" viewBox="0 0 52 54" fill="none" xmlns="http://www.w3.org/2000/svg">
<g opacity="0.4" clip-path="url(#clip0_785_494)">
<path d="M26.0283 53.2429C12.4006 53.2429 1.32617 41.8173 1.32617 27.7576C1.32617 13.6978 12.4006 2.23926 26.0283 2.23926C27.9113 2.23926 29.7943 2.46975 31.6134 2.89779C32.1879 3.0295 32.5709 3.65511 32.4432 4.24779C32.3155 4.84048 31.7092 5.2356 31.1347 5.10389C29.4751 4.70877 27.7517 4.51121 26.0283 4.51121C13.6134 4.51121 3.5283 14.9161 3.5283 27.7246C3.5283 40.5332 13.6134 50.938 26.0283 50.938C38.4432 50.938 48.5283 40.5332 48.5283 27.7246C48.5283 25.3539 48.1772 23.0161 47.507 20.7771C47.3155 20.1844 47.6347 19.5588 48.2091 19.3612C48.7836 19.1636 49.39 19.4929 49.5815 20.0856C50.3155 22.5551 50.6985 25.1234 50.6985 27.7246C50.7304 41.7844 39.656 53.2429 26.0283 53.2429Z" fill="black"/>
<path d="M43.3898 15.9369C42.7834 15.9369 42.3047 15.443 42.3047 14.8174V1.91004C42.3047 1.28443 42.7834 0.790527 43.3898 0.790527C43.9962 0.790527 44.4749 1.28443 44.4749 1.91004V14.8174C44.4749 15.41 43.9962 15.9369 43.3898 15.9369Z" fill="black"/>
<path d="M49.6451 9.48317H37.1344C36.528 9.48317 36.0493 8.98927 36.0493 8.36365C36.0493 7.73804 36.528 7.24414 37.1344 7.24414H49.6451C50.2515 7.24414 50.7302 7.73804 50.7302 8.36365C50.7302 8.95634 50.2515 9.48317 49.6451 9.48317Z" fill="black"/>
<path d="M16.4536 40.1051V19.427L12.6238 23.6088L10.8047 21.7319L16.8047 15.3441H19.4217V40.1051H16.4536Z" fill="black"/>
<path d="M22.9639 33.8161C22.9639 30.5234 25.7085 28.2514 28.6766 27.3295C25.9 26.5063 23.3468 24.6624 23.3468 21.4027C23.3468 16.9575 27.5596 14.9819 31.549 14.9819C35.5064 14.9819 39.783 16.9575 39.783 21.4027C39.783 24.6624 37.1979 26.5392 34.4213 27.3295C37.4213 28.2514 40.1341 30.5234 40.1341 33.8161C40.1341 37.9978 36.2405 40.5331 31.5171 40.5331C26.8256 40.5331 22.9639 38.0636 22.9639 33.8161ZM37.166 33.4868C37.166 30.26 33.049 28.8771 31.5809 28.7124C30.1128 28.91 25.9639 30.26 25.9639 33.4868C25.9639 36.1539 28.5809 37.8002 31.5809 37.8002C34.5171 37.8002 37.166 36.1539 37.166 33.4868ZM36.783 21.7978C36.783 19.2295 34.4532 17.7149 31.549 17.7149C28.6447 17.7149 26.3149 19.2295 26.3149 21.7978C26.3149 24.7941 30.0809 25.8149 31.549 26.0783C33.049 25.8149 36.783 24.7941 36.783 21.7978Z" fill="black"/>
</g>
<defs>
<clipPath id="clip0_785_494">
<rect width="51" height="54" fill="white" transform="translate(0.496094 0.000244141)"/>
</clipPath>
</defs>
</svg>
