<svg width="25" height="27" viewBox="0 0 25 27" fill="none" xmlns="http://www.w3.org/2000/svg">
<g opacity="0.4" clip-path="url(#clip0_802_2715)">
<path d="M12.2536 26.0393C5.71337 26.0393 0.398438 20.5558 0.398438 13.8082C0.398438 7.06054 5.71337 1.56128 12.2536 1.56128C13.1573 1.56128 14.061 1.6719 14.9341 1.87733C15.2098 1.94054 15.3936 2.24079 15.3323 2.52523C15.2711 2.80967 14.98 2.9993 14.7043 2.93609C13.9079 2.74646 13.0808 2.65165 12.2536 2.65165C6.29541 2.65165 1.4553 7.64523 1.4553 13.7924C1.4553 19.9395 6.29541 24.9331 12.2536 24.9331C18.2119 24.9331 23.052 19.9395 23.052 13.7924C23.052 12.6546 22.8835 11.5326 22.5619 10.4581C22.47 10.1736 22.6231 9.87337 22.8988 9.77856C23.1745 9.68374 23.4655 9.84177 23.5574 10.1262C23.9097 11.3114 24.0935 12.544 24.0935 13.7924C24.1089 20.54 18.7939 26.0393 12.2536 26.0393Z" fill="white"/>
<path d="M20.5862 8.1351C20.2952 8.1351 20.0654 7.89806 20.0654 7.59782V1.40325C20.0654 1.103 20.2952 0.865967 20.5862 0.865967C20.8772 0.865967 21.107 1.103 21.107 1.40325V7.59782C21.107 7.88226 20.8772 8.1351 20.5862 8.1351Z" fill="white"/>
<path d="M23.5884 5.03795H17.5842C17.2932 5.03795 17.0635 4.80091 17.0635 4.50066C17.0635 4.20042 17.2932 3.96338 17.5842 3.96338H23.5884C23.8795 3.96338 24.1092 4.20042 24.1092 4.50066C24.1092 4.78511 23.8795 5.03795 23.5884 5.03795Z" fill="white"/>
<path d="M7.65834 19.7343V9.81034L5.82032 11.8172L4.94727 10.9165L7.82683 7.85083H9.0828V19.7343H7.65834Z" fill="white"/>
<path d="M10.7832 16.716C10.7832 15.1358 12.1004 14.0454 13.5249 13.6029C12.1923 13.2079 10.967 12.3229 10.967 10.7585C10.967 8.62515 12.9888 7.677 14.9034 7.677C16.8027 7.677 18.8552 8.62515 18.8552 10.7585C18.8552 12.3229 17.6145 13.2237 16.2819 13.6029C17.7217 14.0454 19.0236 15.1358 19.0236 16.716C19.0236 18.7229 17.155 19.9397 14.8881 19.9397C12.6365 19.9397 10.7832 18.7545 10.7832 16.716ZM17.5992 16.558C17.5992 15.0093 15.6233 14.3456 14.9187 14.2666C14.2142 14.3614 12.223 15.0093 12.223 16.558C12.223 17.838 13.479 18.6281 14.9187 18.6281C16.3279 18.6281 17.5992 17.838 17.5992 16.558ZM17.4154 10.9481C17.4154 9.71552 16.2973 8.98861 14.9034 8.98861C13.5096 8.98861 12.3915 9.71552 12.3915 10.9481C12.3915 12.3861 14.1989 12.876 14.9034 13.0024C15.6233 12.876 17.4154 12.3861 17.4154 10.9481Z" fill="white"/>
</g>
<defs>
<clipPath id="clip0_802_2715">
<rect width="24.4763" height="25.916" fill="white" transform="translate(0 0.486816)"/>
</clipPath>
</defs>
</svg>
