<svg width="111" height="74" viewBox="0 0 111 74" fill="none" xmlns="http://www.w3.org/2000/svg">
<g filter="url(#filter0_d_802_1755)">
<path d="M103.821 65.6366C104.079 65.7357 104.368 65.6072 104.467 65.3494L106.083 61.1494C106.182 60.8917 106.053 60.6024 105.795 60.5032C105.538 60.4041 105.248 60.5327 105.149 60.7904L103.713 64.5238L99.9799 63.0878C99.7221 62.9887 99.4328 63.1173 99.3337 63.375C99.2346 63.6327 99.3632 63.922 99.6209 64.0212L103.821 65.6366ZM4.64796 1.68147C6.23689 1.55849 7.96943 1.49426 9.82632 1.5004L9.82963 0.500409C7.9479 0.494183 6.18844 0.559247 4.57079 0.684448L4.64796 1.68147ZM20.221 2.19161C23.464 2.59644 26.9 3.19274 30.4686 4.01597L30.6934 3.04156C27.091 2.21054 23.6213 1.60832 20.3448 1.19931L20.221 2.19161ZM40.4964 6.85438C43.6887 7.92897 46.9366 9.1903 50.2031 10.66L50.6134 9.74801C47.316 8.26444 44.0376 6.99127 40.8154 5.90663L40.4964 6.85438ZM59.4767 15.3994C62.4167 17.0925 65.3436 18.9707 68.2306 21.0496L68.815 20.2381C65.8997 18.1388 62.9442 16.2423 59.9757 14.5329L59.4767 15.3994ZM76.3592 27.5596C78.8962 29.8141 81.3791 32.2477 83.7877 34.8722L84.5245 34.1961C82.0926 31.5462 79.5854 29.0888 77.0234 26.8121L76.3592 27.5596ZM90.4428 42.892C92.4726 45.5986 94.4261 48.4703 96.2887 51.5158L97.1418 50.9941C95.2628 47.9217 93.2915 45.0239 91.2429 42.292L90.4428 42.892ZM101.324 60.6475C102.086 62.1847 102.826 63.7596 103.544 65.373L104.457 64.9669C103.735 63.3408 102.989 61.7533 102.22 60.2034L101.324 60.6475Z" fill="#818181"/>
</g>
<defs>
<filter id="filter0_d_802_1755" x="0.570801" y="0.5" width="109.545" height="73.1702" filterUnits="userSpaceOnUse" color-interpolation-filters="sRGB">
<feFlood flood-opacity="0" result="BackgroundImageFix"/>
<feColorMatrix in="SourceAlpha" type="matrix" values="0 0 0 0 0 0 0 0 0 0 0 0 0 0 0 0 0 0 127 0" result="hardAlpha"/>
<feOffset dy="4"/>
<feGaussianBlur stdDeviation="2"/>
<feComposite in2="hardAlpha" operator="out"/>
<feColorMatrix type="matrix" values="0 0 0 0 0 0 0 0 0 0 0 0 0 0 0 0 0 0 0.25 0"/>
<feBlend mode="normal" in2="BackgroundImageFix" result="effect1_dropShadow_802_1755"/>
<feBlend mode="normal" in="SourceGraphic" in2="effect1_dropShadow_802_1755" result="shape"/>
</filter>
</defs>
</svg>
