<svg width="16" height="16" viewBox="0 0 16 16" fill="none" xmlns="http://www.w3.org/2000/svg">
<g clip-path="url(#clip0_804_3400)">
<path d="M7.99717 3.96228C5.80009 3.96228 4.00006 5.74387 3.99805 7.91949C3.99604 10.0991 5.78904 11.8857 7.98362 11.8916C10.1953 11.8976 12.0028 10.1085 11.9988 7.9175C11.9953 5.73989 10.1958 3.96129 7.99717 3.96228ZM7.99516 11.1737C6.20266 11.1717 4.73543 9.72546 4.72238 7.94785C4.70933 6.15979 6.17907 4.68815 7.98562 4.68019C9.79017 4.67173 11.2725 6.13293 11.2745 7.92148C11.2765 9.71203 9.80071 11.1752 7.99516 11.1737Z" fill="#B2885C"/>
<path d="M13.0853 3.61738C13.0782 4.00295 12.748 4.32584 12.3614 4.32634C11.9659 4.32683 11.6206 3.97659 11.6311 3.58654C11.6421 3.18753 11.988 2.87062 12.3936 2.88604C12.7896 2.90096 13.0923 3.22186 13.0853 3.61738Z" fill="#B2885C"/>
<path d="M15.9902 4.70075C15.9762 2.05597 13.9081 0.0141793 11.2437 0.00522411C9.08477 -0.00174106 6.92684 -0.000746037 4.7684 0.00522411C2.08442 0.0126868 0.0168431 2.05647 0.00579991 4.71866C-0.00323539 6.85796 -0.00323539 8.99677 0.00579991 11.1366C0.017345 13.7973 2.08392 15.8376 4.76941 15.849C5.84361 15.8535 6.9173 15.8495 7.9915 15.8495C9.07573 15.8495 10.1605 15.8545 11.2452 15.849C13.9111 15.8351 15.9772 13.7958 15.9912 11.151C16.0018 9.00075 16.0023 6.8505 15.9902 4.70075ZM15.2654 11.2007C15.2383 13.4172 13.5161 15.1087 11.2778 15.1311C9.09782 15.152 6.9163 15.1495 4.73628 15.1316C2.47244 15.1132 0.753722 13.3983 0.72762 11.1525C0.715573 10.0669 0.725612 8.98085 0.725612 7.89478H0.75071C0.75071 6.70224 0.674412 5.50522 0.767275 4.31965C0.930412 2.24254 2.60244 0.744528 4.70315 0.723632C6.89471 0.701244 9.08678 0.702737 11.2778 0.72214C13.5141 0.743035 15.2378 2.43557 15.2654 4.65249C15.2925 6.83458 15.2925 9.01816 15.2654 11.2007Z" fill="#B2885C"/>
<path d="M7.99717 3.96228C5.80009 3.96228 4.00006 5.74387 3.99805 7.91949C3.99604 10.0991 5.78904 11.8857 7.98362 11.8916C10.1953 11.8976 12.0028 10.1085 11.9988 7.9175C11.9953 5.73989 10.1958 3.96129 7.99717 3.96228ZM7.99516 11.1737C6.20266 11.1717 4.73543 9.72546 4.72238 7.94785C4.70933 6.15979 6.17907 4.68815 7.98562 4.68019C9.79017 4.67173 11.2725 6.13293 11.2745 7.92148C11.2765 9.71203 9.80071 11.1752 7.99516 11.1737Z" fill="#B2885C"/>
<path d="M13.0853 3.61738C13.0782 4.00295 12.748 4.32584 12.3614 4.32634C11.9659 4.32683 11.6206 3.97659 11.6311 3.58654C11.6421 3.18753 11.988 2.87062 12.3936 2.88604C12.7896 2.90096 13.0923 3.22186 13.0853 3.61738Z" fill="#B2885C"/>
<path d="M7.99717 3.96228C5.80009 3.96228 4.00006 5.74387 3.99805 7.91949C3.99604 10.0991 5.78904 11.8857 7.98362 11.8916C10.1953 11.8976 12.0028 10.1085 11.9988 7.9175C11.9953 5.73989 10.1958 3.96129 7.99717 3.96228ZM7.99516 11.1737C6.20266 11.1717 4.73543 9.72546 4.72238 7.94785C4.70933 6.15979 6.17907 4.68815 7.98562 4.68019C9.79017 4.67173 11.2725 6.13293 11.2745 7.92148C11.2765 9.71203 9.80071 11.1752 7.99516 11.1737Z" fill="#B2885C"/>
<path d="M13.0853 3.61738C13.0782 4.00295 12.748 4.32584 12.3614 4.32634C11.9659 4.32683 11.6206 3.97659 11.6311 3.58654C11.6421 3.18753 11.988 2.87062 12.3936 2.88604C12.7896 2.90096 13.0923 3.22186 13.0853 3.61738Z" fill="#B2885C"/>
</g>
<defs>
<clipPath id="clip0_804_3400">
<rect width="16" height="16" fill="white"/>
</clipPath>
</defs>
</svg>
